<svg width="15" height="15" viewBox="0 0 15 15" fill="#565656" xmlns="http://www.w3.org/2000/svg">
<path d="M12.8437 3.2625L11.975 2.2125C11.8862 2.1066 11.7753 2.02148 11.65 1.96316C11.5247 1.90485 11.3882 1.87475 11.25 1.875H3.75C3.45625 1.875 3.2 2.00625 3.03125 2.21875L2.1625 3.2625C1.98125 3.48125 1.875 3.75625 1.875 4.0625V11.875C1.875 12.2065 2.0067 12.5245 2.24112 12.7589C2.47554 12.9933 2.79348 13.125 3.125 13.125H11.875C12.5625 13.125 13.125 12.5625 13.125 11.875V4.0625C13.125 3.75625 13.0187 3.48125 12.8437 3.2625ZM7.71875 6.15625L10.9375 9.375H8.75V10.625H6.25V9.375H4.0625L7.28125 6.15625C7.4 6.0375 7.6 6.0375 7.71875 6.15625V6.15625ZM3.2 3.125L3.7125 2.5H11.2125L11.7938 3.125H3.2Z" fill="#565656"/>
</svg>
